<mxfile host="Electron" modified="2023-04-26T01:56:09.388Z" agent="Mozilla/5.0 (Windows NT 10.0; Win64; x64) AppleWebKit/537.36 (KHTML, like Gecko) draw.io/21.2.1 Chrome/112.0.5615.87 Electron/24.1.2 Safari/537.36" etag="G8yAB8JaA6yieeSyECSN" version="21.2.1" type="device">
  <diagram name="Page-1" id="tPF_jWIuoTj9Y_wXt_pp">
    <mxGraphModel dx="1100" dy="740" grid="0" gridSize="10" guides="1" tooltips="1" connect="1" arrows="1" fold="1" page="1" pageScale="1" pageWidth="850" pageHeight="1100" background="none" math="0" shadow="0">
      <root>
        <mxCell id="0" />
        <mxCell id="1" parent="0" />
        <mxCell id="MvVzryabli-I_zMOpfva-1" value="Consultar histórico" style="shape=umlFrame;whiteSpace=wrap;html=1;pointerEvents=0;recursiveResize=0;container=1;collapsible=0;width=160;fontStyle=1;align=left;spacing=15;" vertex="1" parent="1">
          <mxGeometry x="98" y="88" width="1400" height="850" as="geometry" />
        </mxCell>
        <mxCell id="MvVzryabli-I_zMOpfva-2" value="Usuário" style="swimlane;whiteSpace=wrap;spacing=5;swimlaneFillColor=#FFF2CC;fillColor=#FFF2CC;" vertex="1" parent="MvVzryabli-I_zMOpfva-1">
          <mxGeometry x="100" y="75" width="400" height="700" as="geometry">
            <mxRectangle x="164.5" y="128" width="90" height="30" as="alternateBounds" />
          </mxGeometry>
        </mxCell>
        <mxCell id="MvVzryabli-I_zMOpfva-46" style="edgeStyle=none;curved=1;rounded=0;orthogonalLoop=1;jettySize=auto;html=1;exitX=0.5;exitY=0;exitDx=0;exitDy=0;entryX=0.5;entryY=1;entryDx=0;entryDy=0;fontSize=12;startSize=6;endSize=8;endArrow=open;endFill=0;" edge="1" parent="MvVzryabli-I_zMOpfva-2" target="MvVzryabli-I_zMOpfva-45">
          <mxGeometry relative="1" as="geometry">
            <mxPoint x="200" y="366" as="sourcePoint" />
          </mxGeometry>
        </mxCell>
        <mxCell id="MvVzryabli-I_zMOpfva-45" value="" style="ellipse;html=1;shape=endState;fillColor=strokeColor;fontSize=16;" vertex="1" parent="MvVzryabli-I_zMOpfva-2">
          <mxGeometry x="185" y="270" width="30" height="30" as="geometry" />
        </mxCell>
        <mxCell id="MvVzryabli-I_zMOpfva-47" value="[Voltar à tela inicial]" style="text;html=1;strokeColor=none;fillColor=none;align=center;verticalAlign=middle;whiteSpace=wrap;rounded=0;fontSize=12;" vertex="1" parent="MvVzryabli-I_zMOpfva-2">
          <mxGeometry x="88" y="327" width="110" height="20" as="geometry" />
        </mxCell>
        <mxCell id="MvVzryabli-I_zMOpfva-58" value="[Visualizar detalhes de uma pontuação]" style="text;html=1;strokeColor=none;fillColor=none;align=center;verticalAlign=middle;whiteSpace=wrap;rounded=0;fontSize=12;" vertex="1" parent="MvVzryabli-I_zMOpfva-2">
          <mxGeometry x="238" y="457" width="125" height="50" as="geometry" />
        </mxCell>
        <mxCell id="MvVzryabli-I_zMOpfva-59" value="&lt;font style=&quot;font-size: 12px;&quot;&gt;Escolher uma opção&lt;/font&gt;" style="shape=hexagon;perimeter=hexagonPerimeter2;whiteSpace=wrap;html=1;fixedSize=1;fontSize=16;" vertex="1" parent="MvVzryabli-I_zMOpfva-2">
          <mxGeometry x="130" y="366" width="140" height="50" as="geometry" />
        </mxCell>
        <mxCell id="MvVzryabli-I_zMOpfva-10" value="Front-end" style="swimlane;whiteSpace=wrap;spacing=5;swimlaneFillColor=#FFCCFF;fillColor=#FFCCFF;" vertex="1" parent="MvVzryabli-I_zMOpfva-1">
          <mxGeometry x="500" y="75" width="400" height="700" as="geometry">
            <mxRectangle x="164.5" y="128" width="90" height="30" as="alternateBounds" />
          </mxGeometry>
        </mxCell>
        <mxCell id="MvVzryabli-I_zMOpfva-40" style="edgeStyle=none;curved=1;rounded=0;orthogonalLoop=1;jettySize=auto;html=1;exitX=0.5;exitY=1;exitDx=0;exitDy=0;entryX=0.5;entryY=0;entryDx=0;entryDy=0;fontSize=12;startSize=6;endSize=8;endArrow=open;endFill=0;" edge="1" parent="MvVzryabli-I_zMOpfva-10" source="MvVzryabli-I_zMOpfva-37" target="MvVzryabli-I_zMOpfva-38">
          <mxGeometry relative="1" as="geometry" />
        </mxCell>
        <mxCell id="MvVzryabli-I_zMOpfva-37" value="" style="ellipse;fillColor=strokeColor;html=1;fontSize=16;" vertex="1" parent="MvVzryabli-I_zMOpfva-10">
          <mxGeometry x="185" y="63" width="30" height="30" as="geometry" />
        </mxCell>
        <mxCell id="MvVzryabli-I_zMOpfva-38" value="Exibir a tela de consulta de histórico" style="strokeColor=default;whiteSpace=wrap;rounded=1;glass=0;spacing=11;" vertex="1" parent="MvVzryabli-I_zMOpfva-10">
          <mxGeometry x="130" y="144" width="140" height="60" as="geometry" />
        </mxCell>
        <mxCell id="MvVzryabli-I_zMOpfva-42" value="Exibir as pontuações encontradas" style="strokeColor=default;whiteSpace=wrap;rounded=1;glass=0;spacing=11;" vertex="1" parent="MvVzryabli-I_zMOpfva-10">
          <mxGeometry x="130" y="255" width="140" height="60" as="geometry" />
        </mxCell>
        <mxCell id="MvVzryabli-I_zMOpfva-57" value="Expandir a pontuação escolhida" style="strokeColor=default;whiteSpace=wrap;rounded=1;glass=0;spacing=11;" vertex="1" parent="MvVzryabli-I_zMOpfva-10">
          <mxGeometry x="130" y="477" width="140" height="60" as="geometry" />
        </mxCell>
        <mxCell id="MvVzryabli-I_zMOpfva-67" value="Exibir a pontuação escolhida juntamente com as perguntas, respostas esperadas e respostas concedidas que a compõem" style="strokeColor=default;whiteSpace=wrap;rounded=1;glass=0;spacing=11;" vertex="1" parent="MvVzryabli-I_zMOpfva-10">
          <mxGeometry x="100" y="588" width="200" height="80" as="geometry" />
        </mxCell>
        <mxCell id="MvVzryabli-I_zMOpfva-23" value="Back-end" style="swimlane;whiteSpace=wrap;spacing=5;swimlaneFillColor=#CCCCFF;fillColor=#CCCCFF;" vertex="1" parent="MvVzryabli-I_zMOpfva-1">
          <mxGeometry x="900" y="75" width="400" height="700" as="geometry">
            <mxRectangle x="164.5" y="128" width="90" height="30" as="alternateBounds" />
          </mxGeometry>
        </mxCell>
        <mxCell id="MvVzryabli-I_zMOpfva-39" value="Encontrar todas as pontuações das equipes, ordenadas em ordem decrescente" style="strokeColor=default;whiteSpace=wrap;rounded=1;glass=0;spacing=11;" vertex="1" parent="MvVzryabli-I_zMOpfva-23">
          <mxGeometry x="125" y="129" width="150" height="90" as="geometry" />
        </mxCell>
        <mxCell id="MvVzryabli-I_zMOpfva-64" value="Encontrar as perguntas, respostas esperadas e respostas concedidas que compõem a pontuação escolhida" style="strokeColor=default;whiteSpace=wrap;rounded=1;glass=0;spacing=11;" vertex="1" parent="MvVzryabli-I_zMOpfva-23">
          <mxGeometry x="125" y="462" width="150" height="90" as="geometry" />
        </mxCell>
        <mxCell id="MvVzryabli-I_zMOpfva-41" style="edgeStyle=none;curved=1;rounded=0;orthogonalLoop=1;jettySize=auto;html=1;exitX=1;exitY=0.5;exitDx=0;exitDy=0;entryX=0;entryY=0.5;entryDx=0;entryDy=0;fontSize=12;startSize=6;endSize=8;endArrow=open;endFill=0;" edge="1" parent="MvVzryabli-I_zMOpfva-1" source="MvVzryabli-I_zMOpfva-38" target="MvVzryabli-I_zMOpfva-39">
          <mxGeometry relative="1" as="geometry" />
        </mxCell>
        <mxCell id="MvVzryabli-I_zMOpfva-43" style="edgeStyle=orthogonalEdgeStyle;rounded=0;orthogonalLoop=1;jettySize=auto;html=1;exitX=0.5;exitY=1;exitDx=0;exitDy=0;entryX=1;entryY=0.5;entryDx=0;entryDy=0;fontSize=12;startSize=6;endSize=8;endArrow=open;endFill=0;" edge="1" parent="MvVzryabli-I_zMOpfva-1" source="MvVzryabli-I_zMOpfva-39" target="MvVzryabli-I_zMOpfva-42">
          <mxGeometry relative="1" as="geometry" />
        </mxCell>
        <mxCell id="MvVzryabli-I_zMOpfva-61" style="edgeStyle=orthogonalEdgeStyle;rounded=0;orthogonalLoop=1;jettySize=auto;html=1;exitX=0.5;exitY=1;exitDx=0;exitDy=0;entryX=1;entryY=0.5;entryDx=0;entryDy=0;fontSize=12;startSize=6;endSize=8;endArrow=open;endFill=0;" edge="1" parent="MvVzryabli-I_zMOpfva-1" source="MvVzryabli-I_zMOpfva-42" target="MvVzryabli-I_zMOpfva-59">
          <mxGeometry relative="1" as="geometry" />
        </mxCell>
        <mxCell id="MvVzryabli-I_zMOpfva-62" style="edgeStyle=orthogonalEdgeStyle;rounded=0;orthogonalLoop=1;jettySize=auto;html=1;exitX=0.5;exitY=1;exitDx=0;exitDy=0;entryX=0;entryY=0.5;entryDx=0;entryDy=0;fontSize=12;startSize=6;endSize=8;endArrow=open;endFill=0;" edge="1" parent="MvVzryabli-I_zMOpfva-1" source="MvVzryabli-I_zMOpfva-59" target="MvVzryabli-I_zMOpfva-57">
          <mxGeometry relative="1" as="geometry" />
        </mxCell>
        <mxCell id="MvVzryabli-I_zMOpfva-65" style="edgeStyle=none;curved=1;rounded=0;orthogonalLoop=1;jettySize=auto;html=1;exitX=1;exitY=0.5;exitDx=0;exitDy=0;entryX=0;entryY=0.5;entryDx=0;entryDy=0;fontSize=12;startSize=6;endSize=8;endArrow=open;endFill=0;" edge="1" parent="MvVzryabli-I_zMOpfva-1" source="MvVzryabli-I_zMOpfva-57" target="MvVzryabli-I_zMOpfva-64">
          <mxGeometry relative="1" as="geometry" />
        </mxCell>
        <mxCell id="MvVzryabli-I_zMOpfva-68" style="edgeStyle=orthogonalEdgeStyle;rounded=0;orthogonalLoop=1;jettySize=auto;html=1;exitX=0.5;exitY=1;exitDx=0;exitDy=0;entryX=1;entryY=0.5;entryDx=0;entryDy=0;fontSize=12;startSize=6;endSize=8;endArrow=open;endFill=0;" edge="1" parent="MvVzryabli-I_zMOpfva-1" source="MvVzryabli-I_zMOpfva-64" target="MvVzryabli-I_zMOpfva-67">
          <mxGeometry relative="1" as="geometry" />
        </mxCell>
        <mxCell id="MvVzryabli-I_zMOpfva-70" style="edgeStyle=orthogonalEdgeStyle;rounded=0;orthogonalLoop=1;jettySize=auto;html=1;exitX=0;exitY=0.5;exitDx=0;exitDy=0;entryX=0;entryY=0.5;entryDx=0;entryDy=0;fontSize=12;startSize=6;endSize=8;endArrow=open;endFill=0;" edge="1" parent="MvVzryabli-I_zMOpfva-1" source="MvVzryabli-I_zMOpfva-67" target="MvVzryabli-I_zMOpfva-59">
          <mxGeometry relative="1" as="geometry" />
        </mxCell>
      </root>
    </mxGraphModel>
  </diagram>
</mxfile>
